<svg id="Layer_1" data-name="Layer 1" xmlns="http://www.w3.org/2000/svg" viewBox="0 0 34 28"><defs><style>.cls-1{fill:#0097ee;}.cls-2{fill:#00a8ee;}.cls-3{fill:#b2e6ff;}</style></defs><title>icons</title><path class="cls-1" d="M31,22V5.13H29.41V2.55L17.36,5.13H3.87V22h11.3v2.79H12.92v1.36h9V24.76H19.66V22Zm-14.1-1.12H5V6.25H16.85ZM18,20.71V6.14l4.75-1,5.56-1.19V18.51Z"/><path class="cls-2" d="M30.13,21.3V4.46H28.57V1.89L16.52,4.46H3V21.3h11.3v2.79H12.09v1.36h9V24.09H18.83V21.3ZM16,20.18H4.16V5.58H16ZM17.15,20V5.48l4.75-1,5.56-1.19V17.84Z"/><path class="cls-3" d="M27.46,3.27,21.9,4.46l-4.75,1V20l10.31-2.2Zm-8.6,14.85-.36-1.06,7.39-2.44.36,1.07Zm0-3-.36-1.06,7.39-2.44.36,1.06Zm0-3L18.5,11l7.4-2.44.35,1.06Zm0-3L18.5,8l7.4-2.45.35,1.07Z"/><path class="cls-3" d="M4.16,20.18H16V5.58H4.16ZM11.49,8h3.39V9.13H11.49Zm0,3h3.39v1.12H11.49ZM7.72,8H8.94l1.78,5H9.6l-.34-1H7.35L7,13H5.93ZM5.7,14h9.18v1.12H5.7Zm0,3h9.18v1.12H5.7Z"/><polygon class="cls-3" points="8.31 9.1 7.64 11.12 8.98 11.12 8.31 9.1"/></svg>