<svg id="Layer_1" data-name="Layer 1" xmlns="http://www.w3.org/2000/svg" viewBox="0 0 34 28"><defs><style>.cls-1{fill:#00a8ee;}.cls-2{fill:#b2e6ff;}</style></defs><title>icons</title><path class="cls-1" d="M26.94,8.83H8a1.74,1.74,0,0,0-1.74,1.74V20.95A1.74,1.74,0,0,0,8,22.69H26.94a1.74,1.74,0,0,0,1.74-1.74V10.57A1.74,1.74,0,0,0,26.94,8.83Zm-9.47,11.7a4.77,4.77,0,1,1,4.77-4.77A4.78,4.78,0,0,1,17.47,20.53Z"/><polygon class="cls-1" points="12.33 8.83 14.71 6.35 20.77 6.35 23.07 8.83 12.33 8.83"/><path class="cls-2" d="M26,7.79H7.06A1.74,1.74,0,0,0,5.33,9.53V19.91a1.74,1.74,0,0,0,1.74,1.74H26a1.74,1.74,0,0,0,1.74-1.74V9.53A1.74,1.74,0,0,0,26,7.79ZM16.53,20.73a5.94,5.94,0,1,1,5.94-5.94A5.94,5.94,0,0,1,16.53,20.73Z"/><polygon class="cls-1" points="11.39 7.79 13.78 5.32 19.84 5.32 22.13 7.79 11.39 7.79"/><polygon class="cls-1" points="11.04 7.8 11.04 7 10.1 7 10.1 5.96 7.71 5.96 7.71 7.79 10.96 7.79 11.04 7.8"/></svg>