<?xml version="1.0" encoding="utf-8"?>
<!-- Generator: Adobe Illustrator 21.1.0, SVG Export Plug-In . SVG Version: 6.00 Build 0)  -->
<svg version="1.1" id="Capa_1" xmlns="http://www.w3.org/2000/svg" xmlns:xlink="http://www.w3.org/1999/xlink" x="0px" y="0px"
	 viewBox="0 0 130 104" style="enable-background:new 0 0 130 104;" xml:space="preserve">
<style type="text/css">
	.st0{fill:#FFFFFF;}
</style>
<g>
	<path class="st0" d="M120.5,19H9.5C4.3,19,0,14.7,0,9.5v0C0,4.3,4.3,0,9.5,0h111c5.2,0,9.5,4.3,9.5,9.5v0
		C130,14.7,125.7,19,120.5,19z"/>
	<path class="st0" d="M120.5,61H9.5C4.3,61,0,56.7,0,51.5v0C0,46.3,4.3,42,9.5,42h111c5.2,0,9.5,4.3,9.5,9.5v0
		C130,56.7,125.7,61,120.5,61z"/>
	<path class="st0" d="M120.5,104H9.5C4.3,104,0,99.7,0,94.5v0C0,89.3,4.3,85,9.5,85h111c5.2,0,9.5,4.3,9.5,9.5v0
		C130,99.7,125.7,104,120.5,104z"/>
</g>
</svg>
