<svg id="Layer_1" data-name="Layer 1" xmlns="http://www.w3.org/2000/svg" viewBox="0 0 34 28"><defs><style>.cls-1{fill:#ee7d00;}.cls-2{fill:#ffc46b;}</style></defs><title>icons</title><path class="cls-1" d="M25,8.58v7.74a1.08,1.08,0,0,1-.91,1.07c-2,.34-4.12,1.09-3.77,3.33.41,2.58,3.12,2.24,3.12,2.24a2.73,2.73,0,0,0,2.85-2.58V4a.32.32,0,0,0-.38-.31L14.13,6.19a.4.4,0,0,0-.31.4c0,1.7.1,9.43,0,12a1,1,0,0,1-.8.92c-2.06.33-4.26,1.07-3.9,3.35.41,2.58,3.12,2.24,3.12,2.24a2.73,2.73,0,0,0,2.85-2.58V10.62Z"/><path class="cls-2" d="M23.58,7.82v7.73a1.08,1.08,0,0,1-.91,1.07c-2,.34-4.12,1.09-3.77,3.33.41,2.58,3.12,2.24,3.12,2.24a2.73,2.73,0,0,0,2.85-2.58V3.19a.32.32,0,0,0-.38-.31L12.76,5.42a.4.4,0,0,0-.31.4c0,1.7.1,9.43,0,12a.94.94,0,0,1-.8.92c-2.06.33-4.26,1.07-3.9,3.35.41,2.58,3.12,2.24,3.12,2.24a2.73,2.73,0,0,0,2.85-2.58V9.85Z"/></svg>