<svg id="Layer_1" data-name="Layer 1" xmlns="http://www.w3.org/2000/svg" viewBox="0 0 34 28"><defs><style>.cls-1{fill:#f86c00;}.cls-2{fill:#ff9715;}.cls-3{fill:#ffab41;}</style></defs><title>icons</title><path class="cls-1" d="M23.31,16.47a4.22,4.22,0,0,1-1.4-3,5.41,5.41,0,0,0-1-3.63,3.25,3.25,0,0,0-2.62-1.39V5.11a3.42,3.42,0,0,0-1.41-3c-.2-.21-.51-.09-.71.1a.78.78,0,0,0,.2.8c.6.21.81.92.91,1.41a1.56,1.56,0,0,0-.91-.19,3.28,3.28,0,0,0-1.11-.12,13.15,13.15,0,0,0-2.11.21c-.61.1-1.41.31-1.52,1,0,.51.5,1,1.71,1.52a14.75,14.75,0,0,0,2.52.69h.61a2.8,2.8,0,0,0,.9-.1v1a3.25,3.25,0,0,0-2.62,1.39,5.41,5.41,0,0,0-1,3.63,4.22,4.22,0,0,1-1.4,3,6.52,6.52,0,0,0-2.11,4.64,5.76,5.76,0,0,0,2.31,4.81,8.82,8.82,0,0,0,5.34,1.62,8.72,8.72,0,0,0,5.23-1.62,5.76,5.76,0,0,0,2.32-4.81,6.52,6.52,0,0,0-2.12-4.64Zm-8.46-3a5.82,5.82,0,0,1-1.7,3.72,5.2,5.2,0,0,0-1.81,3.93c0,4,3.51,5.42,6.55,5.42s6.43-1.41,6.43-5.42a5.2,5.2,0,0,0-1.81-3.93,5.82,5.82,0,0,1-1.7-3.72c0-2.81-.91-4-2.92-4s-3,1.2-3,4Zm3,13.07c-3,0-6.55-1.41-6.55-5.42a5.2,5.2,0,0,1,1.81-3.93,5.82,5.82,0,0,0,1.7-3.72c0-2.81.91-4,3-4s2.92,1.2,2.92,4a5.82,5.82,0,0,0,1.7,3.72,5.2,5.2,0,0,1,1.81,3.93c0,4-3.51,5.42-6.43,5.42Z"/><path class="cls-2" d="M21.23,14.95a4.22,4.22,0,0,1-1.4-3,5.41,5.41,0,0,0-1-3.63c-.5-.8-.7-1.3-1.91-1.4V3.59a3.42,3.42,0,0,0-1.41-3c-.2-.21-.51-.09-.71.1a.78.78,0,0,0,.2.8c.6.21.81.92.91,1.41A1.55,1.55,0,0,0,15,2.7a3.31,3.31,0,0,0-1.11-.11,13,13,0,0,0-2.11.21c-.61.1-1.41.31-1.52,1,0,.51.51,1,1.71,1.52A14.65,14.65,0,0,0,14.49,6h.61a2.8,2.8,0,0,0,.9-.1v1c-1.2.1-1.53.69-2,1.49a5.41,5.41,0,0,0-1,3.63,4.21,4.21,0,0,1-1.4,3c-1,1.11-2.69,2.33-2.69,4.55a5.76,5.76,0,0,0,2.31,4.81A8.82,8.82,0,0,0,16.51,26a8.72,8.72,0,0,0,5.23-1.62,5.77,5.77,0,0,0,2.32-4.81C24.05,17.37,22.23,16.06,21.23,14.95ZM16.51,25c-3,0-6.54-1.41-6.54-5.42a5.2,5.2,0,0,1,1.81-3.93,5.82,5.82,0,0,0,1.7-3.72c0-2.81.91-4,3-4s2.92,1.2,2.92,4a5.82,5.82,0,0,0,1.7,3.72,5.2,5.2,0,0,1,1.81,3.93C22.94,23.6,19.43,25,16.51,25Z"/><path class="cls-3" d="M21.93,15.62c-1-1.12-2-2.36-2-4.17C19.89,8.3,18.8,7,16.4,7s-3.63,1.35-3.63,4.5c0,1.81-1.07,3.05-2,4.17A5.69,5.69,0,0,0,8.57,20c0,4.49,4.2,6.07,7.83,6.07s7.7-1.58,7.7-6.07A5.68,5.68,0,0,0,21.93,15.62Z"/></svg>