<svg id="Layer_1" data-name="Layer 1" xmlns="http://www.w3.org/2000/svg" viewBox="0 0 34 28"><defs><style>.cls-1{fill:#ee7100;}.cls-2{fill:#ffc46b;}.cls-3{fill:#ee7d00;}</style></defs><title>icons</title><path class="cls-1" d="M17.48,19.86h0a3.79,3.79,0,0,1-3.78-3.78V5.86a3.79,3.79,0,0,1,3.78-3.78h0a3.79,3.79,0,0,1,3.78,3.78V16.09A3.79,3.79,0,0,1,17.48,19.86Z"/><path class="cls-1" d="M17.48,22.42a6.14,6.14,0,0,1-6.13-6.13V11.37h.93v4.92a5.2,5.2,0,0,0,10.39,0V11.17h.93v5.11A6.14,6.14,0,0,1,17.48,22.42Z"/><rect class="cls-1" x="17.01" y="21.95" width="0.93" height="3.88"/><rect class="cls-1" x="14.14" y="25.36" width="6.73" height="0.93"/><path class="cls-2" d="M16.81,19h0a3.69,3.69,0,0,1-3.68-3.67v-10a3.69,3.69,0,0,1,3.68-3.68h0a3.69,3.69,0,0,1,3.68,3.68v10A3.69,3.69,0,0,1,16.81,19Z"/><path class="cls-3" d="M16.81,21.84a6.14,6.14,0,0,1-6.13-6.13V10.8h.93v4.92a5.2,5.2,0,0,0,10.39,0V10.6h.93v5.11A6.14,6.14,0,0,1,16.81,21.84Z"/><rect class="cls-3" x="16.34" y="21.38" width="0.93" height="3.88"/><rect class="cls-3" x="13.48" y="24.78" width="6.73" height="0.93"/></svg>