<svg id="Layer_1" data-name="Layer 1" xmlns="http://www.w3.org/2000/svg" viewBox="0 0 34 28"><defs><style>.cls-1{fill:#f86c00;}.cls-2{fill:#ff9715;}.cls-3{fill:#ffab41;}</style></defs><title>icons</title><path class="cls-1" d="M12.58,5.48a2.11,2.11,0,1,1-2.11-2.11,2.12,2.12,0,0,1,2.11,2.11Zm0,0"/><path class="cls-1" d="M8.11,15h.21v4.2a1.05,1.05,0,0,0,1,1h2.2a1.05,1.05,0,0,0,1-1V19a2.63,2.63,0,0,1-.31-1.22V12.25a2.61,2.61,0,0,1,1.57-2.39V9.43a1.05,1.05,0,0,0-1-1H8.11a1.05,1.05,0,0,0-1,1V14a1,1,0,0,0,1,1Zm0,0"/><path class="cls-1" d="M22.88,5.48A2.12,2.12,0,1,1,25,7.6a2.11,2.11,0,0,1-2.11-2.12Zm0,0"/><path class="cls-1" d="M27.35,15a1,1,0,0,0,1-1V9.43a1.05,1.05,0,0,0-1-1H22.63a1.05,1.05,0,0,0-1,1v.42a2.61,2.61,0,0,1,1.57,2.39v5.49A2.63,2.63,0,0,1,22.84,19v.25a1.05,1.05,0,0,0,1,1h2.2a1.05,1.05,0,0,0,1-1V15Zm0,0"/><path class="cls-1" d="M13.52,12v5.81A1.11,1.11,0,0,0,14.63,19h.43V24.2a1.11,1.11,0,0,0,1.11,1.11h3a1.11,1.11,0,0,0,1.11-1.11V18.95h.42a1.11,1.11,0,0,0,1.11-1.11V12a1.11,1.11,0,0,0-1.11-1.11h-6A1.1,1.1,0,0,0,13.52,12Zm0,0"/><path class="cls-1" d="M20.22,7.44a2.57,2.57,0,1,1-2.57-2.57,2.57,2.57,0,0,1,2.57,2.57Zm0,0"/><path class="cls-2" d="M11.85,4.52A2.11,2.11,0,1,1,9.74,2.41a2.12,2.12,0,0,1,2.11,2.11Zm0,0"/><path class="cls-2" d="M7.38,14.05h.21v4.2a1.05,1.05,0,0,0,1,1h2.2a1.05,1.05,0,0,0,1-1V18a2.63,2.63,0,0,1-.31-1.22V11.29A2.61,2.61,0,0,1,13.15,8.9V8.47a1.05,1.05,0,0,0-1-1H7.38a1.05,1.05,0,0,0-1,1V13a1,1,0,0,0,1,1Zm0,0"/><path class="cls-2" d="M22.15,4.52a2.12,2.12,0,1,1,2.11,2.12,2.11,2.11,0,0,1-2.11-2.12Zm0,0"/><path class="cls-2" d="M26.62,14.05a1,1,0,0,0,1-1V8.47a1.05,1.05,0,0,0-1-1H21.9a1.05,1.05,0,0,0-1,1V8.9a2.61,2.61,0,0,1,1.57,2.39v5.49A2.63,2.63,0,0,1,22.11,18v.25a1.05,1.05,0,0,0,1,1h2.2a1.05,1.05,0,0,0,1-1v-4.2Zm0,0"/><path class="cls-3" d="M12.79,11.09V16.9A1.11,1.11,0,0,0,13.9,18h.43v5.23a1.11,1.11,0,0,0,1.11,1.11h3a1.11,1.11,0,0,0,1.11-1.11V18h.42a1.11,1.11,0,0,0,1.11-1.11V11.09A1.11,1.11,0,0,0,19.95,10h-6a1.1,1.1,0,0,0-1.11,1.11Zm0,0"/><path class="cls-3" d="M19.49,6.48a2.57,2.57,0,1,1-2.57-2.57,2.57,2.57,0,0,1,2.57,2.57Zm0,0"/></svg>