<svg id="Layer_1" data-name="Layer 1" xmlns="http://www.w3.org/2000/svg" viewBox="0 0 34 28"><defs><style>.cls-1{fill:#ee7d00;}.cls-2{fill:#ee7100;}.cls-3{fill:#ffc46b;}</style></defs><title>icons</title><path class="cls-1" d="M10,18a.76.76,0,0,1-.71-.81.77.77,0,0,1,.76-.71h.05A.76.76,0,1,1,10,18Z"/><path class="cls-1" d="M11.26,19.72a.77.77,0,0,1-.56-1.28l.46-.48.07-.08a.76.76,0,1,1,1.11,1.05l-.21.22-.14.15,0,0-.1.1,0,0h0A.76.76,0,0,1,11.26,19.72Z"/><path class="cls-1" d="M13,21.34a.76.76,0,0,1-1.08,0,.77.77,0,0,1,0-1.07l.38-.4h0l.15-.16.37-.39h0l0,0a.76.76,0,1,1,1.11,1.05Z"/><path class="cls-1" d="M15.46,21.6a.76.76,0,1,1-.76-.82h.05A.77.77,0,0,1,15.46,21.6Z"/><path class="cls-2" d="M24.35,10.28a.58.58,0,0,0-.13-.17A.54.54,0,0,0,24,10L20.73,8.81a2.1,2.1,0,0,0-1.47,0l-2.51,1a5.51,5.51,0,0,0-.53.23l-.17.09a4.7,4.7,0,0,0-.59-.27,4.53,4.53,0,0,0-2-.27l-1.69.14a.52.52,0,0,0-.22.07.54.54,0,0,0-.17.16L7.57,15.36a.61.61,0,0,0-.11.4.6.6,0,0,0,.17.38l1.66,1.64a1.34,1.34,0,0,0,1.09,2h.06a1.34,1.34,0,0,0,1.19,1.75,1.35,1.35,0,0,0,1.25,1.85,1.34,1.34,0,0,0,1-.39,1.35,1.35,0,0,0,1.24,1.14h.09a1.33,1.33,0,0,0,.47-.08,1.39,1.39,0,0,0,.83.23,1.41,1.41,0,0,0,1-.44l-.91-.91s0,0,0-.06a1.34,1.34,0,0,0-.07-.51l1.86,1.86a1.81,1.81,0,0,0,.76.13,1.87,1.87,0,0,0,1.35-.66l.19-.22,0-.07-2.87-2.86a.2.2,0,0,1,0-.27c.07-.08.37-.18.44-.11l3.41,3.41a1.59,1.59,0,0,0,.59.09,1.17,1.17,0,0,0,1-.48l.45-.52c.1-.12.06-.2.05-.37l-3-3c-.07-.07,0-.28.09-.36s.37-.15.45-.08l3,3a1.31,1.31,0,0,0,.39,0,.9.9,0,0,0,.78-.41l.12-.14a1.55,1.55,0,0,0,.37-1.07,1.54,1.54,0,0,0-.44-1l-.8-.8.2.2,2.17-2a.59.59,0,0,0,.18-.34.62.62,0,0,0-.05-.38Z"/><path class="cls-2" d="M25,18.74l-6.68-6.66.08-.19a.37.37,0,0,0,0-.32.31.31,0,0,0-.25-.16l-.5,0-.54,0L17,12a7.45,7.45,0,0,1-.85,2.8,4,4,0,0,1-1.93,1.85,2.84,2.84,0,0,1-.5.06.59.59,0,0,1-.25,0l-.25-.12a.45.45,0,0,1-.23-.25.49.49,0,0,1,0-.34l2.54-5.58.43-.28.17-.07h0L19.35,8.8A1.78,1.78,0,0,1,20,8.68h0a1.78,1.78,0,0,1,.61.11l3.72,1.34,3.17,6.36Z"/><path class="cls-2" d="M27.69,6.66,25.45,7.77a1.41,1.41,0,0,0-.63,1.89l2.93,5.87a1.41,1.41,0,0,0,1.89.63L31.87,15ZM29.63,15a.54.54,0,1,1,.54-.54A.54.54,0,0,1,29.63,15Z"/><path class="cls-2" d="M11.08,8.44a1.4,1.4,0,0,0-.58-.91l-2-1.44L3.07,13.77l2,1.44a1.4,1.4,0,0,0,2-.34l3.77-5.37A1.4,1.4,0,0,0,11.08,8.44ZM5.9,13.65A.54.54,0,1,1,5.45,13,.54.54,0,0,1,5.9,13.65Z"/><path class="cls-3" d="M23.87,9.06a.58.58,0,0,0-.13-.17.53.53,0,0,0-.18-.11L20.25,7.59a2.1,2.1,0,0,0-1.47,0l-2.51,1a5.5,5.5,0,0,0-.53.23l-.17.09A4.72,4.72,0,0,0,15,8.62a4.53,4.53,0,0,0-2-.27l-1.69.14a.52.52,0,0,0-.22.07.54.54,0,0,0-.17.16L7.1,14.15a.61.61,0,0,0-.11.4.6.6,0,0,0,.17.38l1.66,1.64a1.35,1.35,0,0,0,1.09,2H10a1.34,1.34,0,0,0,1.19,1.75,1.35,1.35,0,0,0,1.25,1.85,1.34,1.34,0,0,0,1-.39,1.35,1.35,0,0,0,1.24,1.14h.09a1.33,1.33,0,0,0,.47-.08A1.39,1.39,0,0,0,16,23a1.41,1.41,0,0,0,1-.44L16,21.7s0,0,0-.06a1.34,1.34,0,0,0-.07-.51L17.84,23a1.81,1.81,0,0,0,.76.13,1.87,1.87,0,0,0,1.35-.66l.19-.22,0-.07L17.3,19.31a.2.2,0,0,1,0-.27c.07-.08.37-.18.44-.11l3.41,3.41a1.59,1.59,0,0,0,.59.09,1.17,1.17,0,0,0,1-.48l.45-.52c.1-.12.06-.2.05-.37l-3-3c-.07-.07,0-.28.09-.36s.37-.15.45-.08l3,3a1.3,1.3,0,0,0,.39,0,.9.9,0,0,0,.78-.41l.12-.14A1.55,1.55,0,0,0,25.44,19,1.54,1.54,0,0,0,25,18l-.8-.8.2.2,2.17-2a.59.59,0,0,0,.18-.34.62.62,0,0,0-.05-.38Z"/><path class="cls-1" d="M24.53,17.53l-6.68-6.66.08-.19a.37.37,0,0,0,0-.32.31.31,0,0,0-.25-.16l-.5,0-.54,0,0,.64a7.45,7.45,0,0,1-.85,2.8,4,4,0,0,1-1.93,1.85,2.85,2.85,0,0,1-.5.06.59.59,0,0,1-.25,0l-.25-.12a.45.45,0,0,1-.23-.25.49.49,0,0,1,0-.34l2.54-5.58.43-.28.17-.07h0l3.19-1.22a1.78,1.78,0,0,1,.62-.12h0a1.78,1.78,0,0,1,.61.11l3.72,1.34L27,15.27Z"/><path class="cls-1" d="M27.22,5.44,25,6.56a1.41,1.41,0,0,0-.63,1.89l2.93,5.87a1.41,1.41,0,0,0,1.89.63l2.24-1.12Zm1.94,8.39a.54.54,0,1,1,.54-.54A.54.54,0,0,1,29.16,13.83Z"/><path class="cls-3" d="M10.61,7.22A1.4,1.4,0,0,0,10,6.31L8,4.88,2.6,12.55l2,1.44a1.4,1.4,0,0,0,2-.34l3.77-5.37A1.4,1.4,0,0,0,10.61,7.22ZM5.43,12.43A.54.54,0,1,1,5,11.82.54.54,0,0,1,5.43,12.43Z"/><path class="cls-1" d="M8.81,16.54h0a1.35,1.35,0,0,0,1.09,2H10a1.34,1.34,0,0,0,1.19,1.75,1.35,1.35,0,0,0,1.25,1.85,1.34,1.34,0,0,0,1-.39,1.35,1.35,0,0,0,1.24,1.14h.09a1.33,1.33,0,0,0,.47-.09,1.39,1.39,0,0,0,.18.08l-6.26-6.2Z"/></svg>