<svg xmlns="http://www.w3.org/2000/svg" viewBox="0 0 23.16 30.73"><defs><style>.cls-1{fill:none;}.cls-2{fill:#04baee;}</style></defs><title>modal</title><g id="modal"><path class="cls-1" d="M545.23,5.15c0-2.85-1.79-5.15-4-5.15h-616c-2.21,0-4,2.31-4,5.15V150.8H7.93l12.8,14.49,12.8-15.49h511.7Z"/><path class="cls-2" d="M0,.07.1,30.73l23.07-.08L23.06,0Zm13.29,29.1H10.24V27h3.05Zm7.12-10-17.58.06V17.53l17.57-.06Zm-.08-3.56-17.5.06V14l17.5-.06Zm0-3.56-17.51.06V10.41l17.5-.06Zm0-3.56L2.81,8.6V6.85l17.5-.06ZM20.3,5,2.79,5V3.3l17.5-.06Z"/></g></svg>