<svg id="Layer_1" data-name="Layer 1" xmlns="http://www.w3.org/2000/svg" viewBox="0 0 34 28"><defs><style>.cls-1{fill:#f86c00;}.cls-2{fill:#ffab41;}.cls-3{fill:#ff9715;}</style></defs><title>icons</title><path class="cls-1" d="M8.57,18.32a16.33,16.33,0,0,0,3-.13,2.58,2.58,0,0,0,1.28,0c2.9.14,5.16,1,5.16-4.94,0-4-2.6-7.25-5.81-7.25S6.36,9.25,6.36,13.25c0,3.22.62,4.47,1.62,4.9a2.12,2.12,0,0,0,.59.17ZM7.64,11c.61.84,2.18.66,3.54-.4a5.24,5.24,0,0,0,.89-.89l.09,0a3.13,3.13,0,0,1,.39.11,3.89,3.89,0,0,1,.37.18,3.66,3.66,0,0,1,.34.22,3.33,3.33,0,0,1,.29.26,2.13,2.13,0,0,1,.23.27A2.66,2.66,0,0,1,14,11a1.26,1.26,0,0,1,.12.21l.09.19,0-.21A2,2,0,0,0,14.1,11a2.09,2.09,0,0,0-.1-.31,3.09,3.09,0,0,0-.16-.36,4,4,0,0,0-.23-.38,4.59,4.59,0,0,0-.31-.37,4,4,0,0,0-.37-.34,3.75,3.75,0,0,0-.39-.25,3,3,0,0,0,.15-.37,4.59,4.59,0,0,1,1.38.89c1.45,1.46.88,3.14,2,2a3,3,0,0,0,.44-.54h.11a.51.51,0,0,1,.31.25,1.33,1.33,0,0,1,.09,1,1.13,1.13,0,0,1-.79.91l-.24,0-.06.23c-.56,2-2.06,4.17-3.76,4.17S9,15.39,8.42,13.37l-.06-.23-.24,0a1.15,1.15,0,0,1-.79-.91,1.33,1.33,0,0,1,.09-1A.53.53,0,0,1,7.64,11Zm0,0"/><path class="cls-1" d="M16.53,18.85a4.44,4.44,0,0,1-1.68,1.79c-1.44.74-2.52,1.34-2.52,1.34h0s-1.07-.6-2.52-1.34A4.46,4.46,0,0,1,8.1,18.85c-2.14.87-3.63,2.86-3.63,4.61v3.62H20.16V23.46c0-1.74-1.49-3.74-3.63-4.61Zm0,0"/><path class="cls-1" d="M18,13.23h3.39v3.29a.51.51,0,0,0,.31.47.49.49,0,0,0,.19,0,.51.51,0,0,0,.36-.15l3.67-3.65h2.18a.51.51,0,0,0,.51-.51l1.91-8.47A.51.51,0,0,0,30,3.75h0L12.65,1.93a.51.51,0,0,0-.51.51l.35,3.62L16.78,9.5Zm9.45-1.31H25.39L25,12.3l-2.3,2.29V11.92H17.82c-.54-2.73-2-4.78-4-5.55l-.3-3L29,5Zm0,0"/><path class="cls-1" d="M19.46,8.05a.85.85,0,1,1-.85-.84.85.85,0,0,1,.85.84Zm0,0"/><path class="cls-1" d="M22.18,8.05a.85.85,0,1,1-.85-.84.85.85,0,0,1,.85.84Zm0,0"/><path class="cls-1" d="M24.9,8.05a.85.85,0,1,1-.85-.84.85.85,0,0,1,.85.84Zm0,0"/><path class="cls-2" d="M7.57,17.32a16.33,16.33,0,0,0,3-.13,2.58,2.58,0,0,0,1.28,0c2.9.14,5.16,1,5.16-4.94,0-4-2.6-7.25-5.81-7.25S5.36,8.25,5.36,12.25c0,3.22.62,4.47,1.62,4.9a2.12,2.12,0,0,0,.59.17ZM6.64,10c.61.84,2.18.66,3.54-.4a5.24,5.24,0,0,0,.89-.89l.09,0a3.13,3.13,0,0,1,.39.11,3.89,3.89,0,0,1,.37.18,3.66,3.66,0,0,1,.34.22,3.33,3.33,0,0,1,.29.26,2.13,2.13,0,0,1,.23.27A2.66,2.66,0,0,1,13,10a1.26,1.26,0,0,1,.12.21l.09.19,0-.21A2,2,0,0,0,13.1,10a2.09,2.09,0,0,0-.1-.31,3.09,3.09,0,0,0-.16-.36,4,4,0,0,0-.23-.38,4.59,4.59,0,0,0-.31-.37,4,4,0,0,0-.37-.34,3.75,3.75,0,0,0-.39-.25,3,3,0,0,0,.15-.37,4.59,4.59,0,0,1,1.38.89c1.45,1.46.88,3.14,2,2a3,3,0,0,0,.44-.54h.11a.51.51,0,0,1,.31.25,1.33,1.33,0,0,1,.09,1,1.13,1.13,0,0,1-.79.91l-.24,0-.06.23c-.56,2-2.06,4.17-3.76,4.17S8,14.39,7.42,12.37l-.06-.23-.24,0a1.15,1.15,0,0,1-.79-.91,1.33,1.33,0,0,1,.09-1A.53.53,0,0,1,6.64,10Zm0,0"/><path class="cls-2" d="M15.53,17.85a4.44,4.44,0,0,1-1.68,1.79c-1.44.74-2.52,1.34-2.52,1.34h0s-1.07-.6-2.52-1.34A4.46,4.46,0,0,1,7.1,17.85c-2.14.87-3.63,2.86-3.63,4.61v3.62H19.16V22.46c0-1.74-1.49-3.74-3.63-4.61Zm0,0"/><path class="cls-3" d="M17,12.23h3.39v3.29a.51.51,0,0,0,.31.47.49.49,0,0,0,.19,0,.51.51,0,0,0,.36-.15l3.67-3.65h2.18a.51.51,0,0,0,.51-.51l1.91-8.47A.51.51,0,0,0,29,2.75h0L11.65.93a.51.51,0,0,0-.51.51l.35,3.62L15.78,8.5Zm9.45-1.31H24.39L24,11.3l-2.3,2.29V10.92H16.82c-.54-2.73-2-4.78-4-5.55l-.3-3L28,4Zm0,0"/><path class="cls-3" d="M18.46,7.05a.85.85,0,1,1-.85-.84.85.85,0,0,1,.85.84Zm0,0"/><path class="cls-3" d="M21.18,7.05a.85.85,0,1,1-.85-.84.85.85,0,0,1,.85.84Zm0,0"/><path class="cls-3" d="M23.9,7.05a.85.85,0,1,1-.85-.84.85.85,0,0,1,.85.84Zm0,0"/></svg>